<svg xmlns="http://www.w3.org/2000/svg" version="1.1" xmlns:xlink="http://www.w3.org/1999/xlink" xmlns:svgjs="http://svgjs.dev/svgjs" viewBox="0 0 7.762514906155623 1.9768715369232386"><g transform="matrix(0.7089405417957756,0,0,0.7089405417957756,1.4173702706820506,0.5753871584762301)"><rect width="8.574130443078861" height="8.574130443078861" x="-0.8116155369232385" y="-3.7044372215394303" fill="#ffffff"></rect><g transform="matrix(1,0,0,1,0,0)" clip-path="url(#SvgjsClipPath3803)"><g clip-path="url(#SvgjsClipPath37984e57d703-0f8e-4d4b-b555-0f9f3ce26f72)"><path d=" M 4.044055016317275 0.5601587031532342 C 3.9813402202907873 0.4974660443650205 3.862219741145524 0.5149323253621596 3.7779654122797237 0.5991866542279611 C 3.6943087888472856 0.6828432776604003 3.676510449276055 0.8008568948920285 3.7376313641469103 0.8639037494926065 C 3.73887104949018 0.8602953796541599 3.7404206561692677 0.8563328140033526 3.7423687331372624 0.8520603270167264 C 3.7460699569867306 0.8439096153804755 3.7504462388053468 0.8360826612649452 3.7554518409564133 0.8286612661625077 C 3.756868624205864 0.8265803657648765 3.7583739564084064 0.8244773281289739 3.7598792886109482 0.8223521532547975 C 3.76138462081349 0.8202269783806193 3.763111325398759 0.8181239407447147 3.7650151278902086 0.8158438052026307 L 3.767538773053294 0.8127888663210012 L 3.7678486943891114 0.8124346705086389 L 3.76800365505702 0.8122575726024557 C 3.76800365505702 0.8122575726024557 3.76800365505702 0.8122575726024557 3.768225027439747 0.8120140629814576 L 3.768225027439747 0.8120140629814576 L 3.7689555563027453 0.8112171224036422 L 3.770416614028742 0.8096232412480093 L 3.773405141195553 0.8063912044602006 L 3.7749326106363674 0.8047751860662962 L 3.7765707662685455 0.8032034421489351 L 3.779891352009447 0.8000156798376696 L 3.78157378211817 0.798421798682037 L 3.783344761179984 0.7968943292412232 C 3.785735582913433 0.7948355660818658 3.7881485418851546 0.7927103912076894 3.7906943242865117 0.7908065887162377 L 3.7945240665076847 0.7878623360259724 C 3.7958080263275 0.7869104347802474 3.7971141233855876 0.7860249452493413 3.7984202204436754 0.7851173184801599 C 3.7997263175017633 0.7842096917109784 3.8010766890363965 0.7832135159887101 3.8023827860944843 0.7823944381726193 L 3.8063232145070205 0.7798486557712616 C 3.8076735860416537 0.7789631662403556 3.808935408623196 0.7782105001390855 3.810241505681284 0.7774135595612681 C 3.811547602739372 0.7766166189834491 3.812831562559187 0.7758196784056355 3.8141376596172747 0.77502273782782 L 3.8216643206299845 0.7705952901732844 C 3.824121554078251 0.7691785069238328 3.826578787526518 0.7677617236743794 3.828903197545149 0.7663670776632017 L 3.832445155668777 0.7643083145038441 L 3.8358764276010415 0.7622052768679395 C 3.840458835923485 0.7594602593221271 3.8448641463397477 0.7566045555849523 3.8492915939942822 0.7537045773712323 C 3.8537190416488167 0.7508045991575123 3.858146489303352 0.7476611113227922 3.8621533294307064 0.7446947213942533 L 3.863680798871521 0.7436099967188925 L 3.8644556022110645 0.7430565657620752 C 3.864749122366602 0.7428683690484268 3.865030118024268 0.7426613196164606 3.8652968172654267 0.7424367230904411 L 3.8688830498655995 0.739669568306355 L 3.8724914197040454 0.7369245507605445 L 3.873399046473225 0.736260433612365 L 3.8738639284769514 0.7359062378000025 L 3.873531869902861 0.7361718846592725 L 3.873531869902861 0.7361718846592725 L 3.873731105047315 0.736016923991365 L 3.8753471234412205 0.7347329641715512 L 3.881766922540296 0.7296192621305624 L 3.888098172686281 0.7243948738982111 C 3.8964660487533522 0.7173995066040462 3.9045461407228785 0.7102491786419716 3.9120949389738606 0.7031209879181706 C 3.913976604227038 0.7013278716180831 3.9158582694802155 0.6995568925562711 3.917651385780302 0.6978080507327289 L 3.91895748283839 0.6965240909129133 L 3.919688011701388 0.6957714248116431 L 3.9203521288495686 0.6951073076634636 L 3.9230085974422897 0.6924065645941984 L 3.9256650660350108 0.6897279587632048 L 3.9282551229129137 0.6870272156939397 C 3.92995969025991 0.6852340993938522 3.9316642576069056 0.68346312033204 3.9333024132390833 0.6816700040319525 C 3.939943584720886 0.6745196760698798 3.9460534624841443 0.6675021715374412 3.951654183767131 0.6607945883408215 C 3.9572549050501173 0.6540870051442 3.9623021953762874 0.6477336177599426 3.966751780269095 0.6419336613325026 C 3.9712013651619027 0.6361337049050626 3.9750975190978934 0.6308650421961643 3.978329555885704 0.6266146924478116 L 3.9858562168984135 0.6163872883658359 C 3.9876050587219547 0.6139743293941141 3.9886233716824977 0.6126903695742985 3.9886233716824977 0.6126903695742985 C 3.9886233716824977 0.6126903695742985 3.9886233716824977 0.6141292900620237 3.9884684110145887 0.6168078958930172 C 3.98831345034668 0.6194865017240107 3.98798139177259 0.6234490673748179 3.9871844511947736 0.6285627694158067 C 3.986218528852441 0.6347658969586224 3.984895474679976 0.6409081205190585 3.9832218855439647 0.6469588144203972 C 3.98099126580961 0.6550889930122727 3.97824058235894 0.6630674538812882 3.97498683290653 0.6708448945166142 C 3.9709894159862316 0.6803711759152864 3.9663521468307974 0.6896161303718927 3.9611067845095627 0.6985164423574575 C 3.960398392884837 0.6997118532241824 3.9597121384983844 0.7009515385674527 3.9588930606822954 0.7021469494341759 L 3.956679336855028 0.7057774565108943 L 3.9543327895981246 0.7094522380641599 L 3.9518312816733125 0.7131048823791499 L 3.949285499271955 0.7168018011706874 L 3.948023676690412 0.7186170547090465 L 3.9466068934409613 0.7204987199622246 C 3.9447473654260565 0.7230002278870389 3.942887837411152 0.7254574613353058 3.9409397604431566 0.7278925575452975 C 3.932943637571576 0.7378803987699477 3.9242909526436787 0.7473243976185997 3.915039191664127 0.7561618108195031 C 3.910323959912047 0.7605892584740406 3.9054759047303316 0.7650167061285726 3.900406477165889 0.7694441537831083 L 3.898502674674439 0.7710380349387411 L 3.896288950847172 0.7728311512388286 C 3.89511567721872 0.7737830524845535 3.8939424035902683 0.7747349537302783 3.8927469927235436 0.7756647177377316 L 3.889182897361643 0.778476146998361 L 3.888186721639373 0.7792288130996312 L 3.8871241342022844 0.7800036164391748 L 3.8849104103750167 0.7815753603565359 C 3.882098981114387 0.783589849039348 3.879176865662394 0.7857592983900696 3.8764318481165825 0.7875524146901571 C 3.875037202105404 0.7884821786976102 3.873642556094225 0.7894340799433353 3.872225772844774 0.7903417067125129 L 3.87012273520887 0.7917142154854191 L 3.867909011381603 0.7929981753052346 C 3.862241878383798 0.7965401334288627 3.85646405919463 0.7997721702166734 3.8507969261968253 0.802694285668665 C 3.839440522962943 0.8085827910491958 3.8286596879241506 0.8130102387037315 3.819627694708899 0.8170170788310878 C 3.811212544376179 0.8206294343662124 3.8030737177780933 0.8248542252639466 3.795276732608957 0.8296574418847833 L 3.793859949359506 0.8305207941774195 C 3.79339506735578 0.830808578274965 3.7929301853520534 0.8311406368490537 3.7924653033483273 0.8314505581848728 L 3.789720285802516 0.8332879489615037 L 3.7870416799715225 0.8350589280233194 L 3.7855363477689803 0.8361879271752255 L 3.784185976234347 0.837161965659224 C 3.782547820602169 0.8382909648111301 3.780776841540355 0.8396634735840363 3.7790722741933593 0.840947433403852 L 3.7765707662685473 0.8428955103718472 L 3.774091395582008 0.8448657245781157 C 3.7676273220063865 0.8501565245252858 3.7617388166258547 0.8554694617107275 3.756580840108322 0.8604724775603523 C 3.7523083531216956 0.8645900038790708 3.748567159853614 0.8684640205767875 3.7452908485892578 0.8719174297473264 C 3.809488839580015 0.926928466854924 3.9232521070632904 0.9078240302256031 4.0045179087622795 0.8265360912883442 C 4.08928139410835 0.7419939783249843 4.10674767510549 0.6228734991797216 4.044055016317275 0.5601587031532342 Z" fill="#876a57" transform="matrix(1,0,0,1,0,0)" fill-rule="nonzero"></path></g><g clip-path="url(#SvgjsClipPath37984e57d703-0f8e-4d4b-b555-0f9f3ce26f72)"><path d=" M 3.6903462231964768 0.7372787465729052 C 3.700183973741753 0.6810856813777009 3.727562865603742 0.6294509357008169 3.7685570860138373 0.5897783279620725 C 3.7890720900627413 0.5691514223089482 3.812525816080648 0.5516730253433135 3.838156563143127 0.5379107786891989 C 3.838156563143127 0.5372245243027458 3.838156563143127 0.5365161326780191 3.838156563143127 0.5358298782915643 C 3.838156563143127 0.3848096387953774 3.747039690412797 0.26236857390921337 3.634648931702427 0.26236857390921337 C 3.522258172992057 0.26236857390921337 3.4311413002617277 0.3848096387953774 3.4311413002617277 0.5358298782915643 C 3.4311413002617277 0.6868501177877528 3.522258172992057 0.8092911826739151 3.634648931702427 0.8092911826739151 C 3.6538113746115486 0.8092648757753191 3.6728049399823925 0.8057078034774985 3.690678281770567 0.7987981317326638 C 3.6871933926695952 0.7784487491160403 3.68708120742416 0.7576645626451306 3.6903462231964768 0.7372787465729052 Z M 3.663781537269267 0.5501083969774396 C 3.659774697141913 0.5563510981703346 3.6558564059676493 0.5625273876484107 3.6519159775551135 0.5685265792203037 C 3.6479755491425774 0.5745257707921985 3.6441900813979498 0.5803921389344575 3.640581711559504 0.5862363698384429 C 3.6333428346443393 0.5977920082167814 3.626679525924264 0.6088606273531179 3.6213665887388222 0.6196414623919091 C 3.6199719427276436 0.6223422054611761 3.6188429435757374 0.6249986740538961 3.617558983755922 0.6276551426466179 L 3.615876553647199 0.6316177082974253 L 3.615013201354565 0.6335879225036958 L 3.6142605352532935 0.6355581367099644 L 3.6127552030507517 0.6394764278842282 L 3.611426968754391 0.6433504445819449 L 3.611094910180301 0.6443244830659434 L 3.6109399495123924 0.6448115023079417 L 3.6109399495123924 0.6450550119289418 L 3.6109399495123924 0.6450550119289418 C 3.6109399495123924 0.64529852154994 3.6111391846568464 0.6434611307733091 3.6109399495123924 0.6443023458276698 L 3.6103643813173028 0.6465160696549386 L 3.6092132449271235 0.6510763407391102 C 3.6090140097826695 0.6520503792231069 3.608792637399943 0.6530022804688318 3.608571265017216 0.6539763189528303 C 3.60843844158758 0.6544633381948286 3.6083277553962168 0.654950357436827 3.6081949319665805 0.6554373766788271 C 3.6080621085369446 0.6559243959208272 3.608017834060399 0.656566375830735 3.607951422345581 0.6571419440258222 L 3.6074644031035823 0.6606396276729065 C 3.607353716912219 0.6617907640630843 3.6073315796739465 0.6629640376915376 3.6072430307208556 0.6641373113199891 C 3.606998347391568 0.6687818819446216 3.6071316096382837 0.6734386571215156 3.6076415010097636 0.678061634193504 C 3.6087489360246074 0.6868694940555775 3.610858250548899 0.6955221399034617 3.6139284766792032 0.7038515167811672 C 3.6164695017545667 0.7108474888161587 3.6194264058463936 0.7176853295285113 3.622783371988273 0.7243284621833905 C 3.625683350201994 0.7300398696577417 3.6282291326033516 0.734578003503638 3.6299779744268927 0.7376108051469958 C 3.6317268162504344 0.7406436067903536 3.632700854734432 0.7424367230904374 3.632700854734432 0.7424367230904374 C 3.632700854734432 0.7424367230904374 3.630752777766437 0.741639782512622 3.6272108196428086 0.7399573524038986 C 3.6263253301119014 0.7395367448767174 3.6253070171513584 0.7390940001112642 3.62424442971427 0.7385184319161735 L 3.6207910205437326 0.7366589039012709 C 3.619573472438735 0.7359726495148178 3.6181788264275574 0.735264257890093 3.616806317654651 0.7344451800740021 L 3.612378870000116 0.7317001625281896 C 3.6049624166791676 0.7269626710639502 3.5980427145705876 0.7214892089459097 3.5917248266917103 0.7153628806829548 C 3.5833768074719647 0.7073479761966225 3.5762801222812906 0.6981245241507006 3.5706723130943967 0.6880012541779288 C 3.567456380312189 0.6820629121247883 3.5648600294815767 0.6758094156956269 3.5629242796989606 0.6693395623140648 C 3.562437260456962 0.6676349949670697 3.561883829500145 0.6659304276200728 3.5614853592112365 0.6641594485582589 L 3.560400634535876 0.6590014720407285 C 3.560223536629694 0.6580717080332753 3.56002430148524 0.657208355740641 3.5598914780556044 0.6562343172566443 L 3.559603693958059 0.6531793783750148 C 3.5594487332901505 0.6511206152156575 3.559293772622242 0.6490175775797528 3.5591609491926057 0.6469366771821199 L 3.55902812576297 0.6422657199065841 L 3.55902812576297 0.6398970354114095 C 3.55902812576297 0.6406497015126796 3.559183086430879 0.6387237617829581 3.5591609491926057 0.6388565852125921 L 3.5591609491926057 0.6383474287323203 L 3.5591609491926057 0.637661174345869 L 3.5592716353839693 0.6363108028112345 L 3.5596701056728772 0.6308207677196098 L 3.5603784972976027 0.6253307326279868 C 3.56141124604786 0.6178415231908125 3.563009698162256 0.6104412819204584 3.5651601407645006 0.6031934943553119 C 3.5695532674168398 0.5884621702626348 3.5754120291950184 0.574208321987117 3.5826485589999137 0.5606457223952308 C 3.584397400823455 0.5572587249395106 3.5862569288383597 0.5540045509134282 3.5881164568532644 0.5505954162194362 C 3.589975984868169 0.5471862815254442 3.5918797873596193 0.5439542447376353 3.5938057270893418 0.5407443451880944 C 3.597613332072242 0.5342359971359296 3.6015980349613237 0.5279490214664895 3.6054941888973144 0.5217063202735945 C 3.6133971829606595 0.5092430551260781 3.621300177024004 0.4973553581736508 3.6285169167008964 0.48571117084222537 C 3.6357336563777887 0.4740669835107999 3.6422641416682273 0.46297622713618797 3.647732039521578 0.45206256866776096 C 3.648396156669758 0.4506900598948547 3.6490602738179385 0.44933968836022026 3.6497465282043913 0.4479893168255895 L 3.6516281934575687 0.44391606498341807 L 3.652557957465021 0.4419237135388757 L 3.653354898042837 0.4400641855239731 L 3.654196113097199 0.43820465750906856 L 3.6546167206243796 0.4372748935016154 L 3.6548380930071067 0.43681001149789067 L 3.6550373281515607 0.4362344433028017 L 3.6567418954985564 0.4316298977420866 L 3.65718464026401 0.4305008985901787 L 3.65718464026401 0.43034593792227105 C 3.65718464026401 0.4305008985901787 3.657317463693646 0.4298367814419991 3.65718464026401 0.4306337220198164 L 3.65718464026401 0.43043448687536345 L 3.657317463693646 0.4299917421099105 L 3.6579151691270084 0.42830931200118527 C 3.6583136394159164 0.4271581756110056 3.6587785214196424 0.42609558817391835 3.6591327172320054 0.42490017730719337 C 3.6594869130443684 0.4237047664404702 3.6597304226653677 0.42268645347992645 3.6600403440011853 0.421446768136658 L 3.660527363243184 0.4197422007896611 C 3.66066018667282 0.41916663259457404 3.660726598387638 0.4185689271612097 3.660815147340729 0.41799335896612266 C 3.6610143824851833 0.41684222257594294 3.6612578921061822 0.41577963513885385 3.6614792644889094 0.4145178125573118 C 3.661700636871636 0.41325598997576796 3.661700636871636 0.41219340253867887 3.6618555975395446 0.41104226614849915 C 3.662010558207453 0.4098911297583213 3.6621433816370894 0.4086957188915963 3.6621655188753617 0.4075445825014166 C 3.662359267848366 0.40289581372012717 3.6621741793482707 0.398238987057732 3.6616120879185448 0.39362025962790353 C 3.6604518691294787 0.38479902446738223 3.658313533219763 0.3761343091665564 3.655236563296014 0.3677861025636913 L 3.6541518386206535 0.36488612434997314 L 3.653642682140382 0.36344720386224805 L 3.6530449767070197 0.36207469508934187 L 3.6508312528797524 0.3567174834273548 C 3.649193097247575 0.35333048597163463 3.647842725712941 0.350076311945554 3.6464038052252175 0.3472427454466492 L 3.6443450420658587 0.34314735636620597 L 3.6424633768126813 0.3395832610043064 C 3.641267965945957 0.3373695371770395 3.640249652985414 0.3353771857324972 3.639342026216234 0.33382757905341165 C 3.6375710471544203 0.3306840912186897 3.636685557623513 0.3289352493951512 3.636685557623513 0.3289352493951512 C 3.636685557623513 0.3289352493951512 3.6386336345915082 0.3297764644495119 3.6421091810003183 0.3314810317965088 C 3.6429946705312255 0.3319237765619618 3.643968709015223 0.33236652132741484 3.6450312964523115 0.3329420895225056 L 3.6484404311463035 0.3348458920139554 L 3.652425134035385 0.33705961584122424 L 3.65685258168992 0.3398489078635801 C 3.659973932286367 0.34177484759330345 3.663117420121087 0.3442763555181158 3.6666815154829875 0.34684427515774696 C 3.6703964788265147 0.34978055827963267 3.6739579030474476 0.3529060405316121 3.6773516643304176 0.3562083269470885 C 3.685692855007473 0.36419603441341036 3.6927892457312277 0.37338925562441416 3.6984041779277304 0.383481404499022 C 3.701666492601903 0.38940147128297076 3.704314609438071 0.39563975212111174 3.7063071719910754 0.40209882188633894 C 3.7068606029478923 0.403781251995066 3.707236935998528 0.40553009381860633 3.7076575435257086 0.4072789356421485 C 3.7080781510528897 0.40902777746569075 3.7085651702948885 0.41082089376577635 3.7088308171541606 0.41263614730413556 C 3.7090964640134327 0.41445140084249477 3.709362110872705 0.41628879161912574 3.7096056204937042 0.4181704568723038 C 3.7096056204937042 0.419100220879757 3.709849130114703 0.42005212212548193 3.7099155418295213 0.42098188613293325 L 3.7100483652591576 0.423837589870108 L 3.710225463165339 0.429637546297548 C 3.710225463165339 0.43158562326554134 3.7100040907826117 0.4335558374718119 3.709871267352976 0.43552605167807873 L 3.7096277577319765 0.43851457884488937 L 3.7096277577319765 0.43926724494615954 L 3.7096277577319765 0.4396435779967973 C 3.7094285225875225 0.4405290675277034 3.7096277577319765 0.4399756365708862 3.7095170715406134 0.4401970089536127 L 3.7095170715406134 0.44035196962152034 L 3.709384248110977 0.4415473804882453 L 3.7087865426776148 0.44635116119341517 L 3.7087865426776148 0.4469488666267777 L 3.708653719247979 0.4476572582515044 L 3.7084102096269795 0.449074041500954 L 3.7078789159084353 0.4519518824764023 L 3.7073033477133457 0.4548297234518506 L 3.7066835050417106 0.45755260375938944 L 3.7053995452218955 0.46299836437446706 L 3.703872075781081 0.46842198775127303 C 3.699485670485652 0.4830590065093004 3.693718847308611 0.4972462810091173 3.68664930440494 0.510792661805173 C 3.6794104274897754 0.5245398867725012 3.6715738451412485 0.5375787201151063 3.663692988316176 0.5501083969774416 Z" fill="#876a57" transform="matrix(1,0,0,1,0,0)" fill-rule="nonzero"></path></g></g><g><path d=" M 0.460173 0.46275099999999997 C 0.384122 0.45372799999999996 0.306782 0.38927799999999996 0.306782 0.286158 C 0.306782 0.13534499999999994 0.466618 0.03351399999999993 0.671569 0.03351399999999993 C 0.805625 0.03351399999999993 0.937103 0.08120700000000003 1.047957 0.14307899999999996 C 1.033778 0.16499200000000003 1.01831 0.19335000000000002 0.998975 0.22557499999999997 C 0.809492 0.549114 0.503999 1.130453 0.143079 1.130453 C 0.021913 1.130453 -0.033514 1.0518239999999999 -0.043826 1.001553 C -0.045115 0.993819 -0.047693 0.988663 -0.052849 0.988663 C -0.059294 0.988663 -0.063161 0.993819 -0.063161 1.000264 C -0.063161 1.058269 0.0077339999999999996 1.1652559999999998 0.14179 1.1652559999999998 C 0.52849 1.1652559999999998 0.841717 0.556848 1.050535 0.203662 C 1.050535 0.203662 0.987374 0.496265 0.984796 0.867497 C 0.984796 0.916479 0.988663 0.946126 1.000264 0.946126 C 1.019599 0.946126 1.037645 0.94097 1.045379 0.921635 C 1.084049 0.831405 1.361184 0.31322700000000003 1.58547 0.121166 C 1.519731 0.23717599999999994 1.374074 0.510444 1.374074 0.836561 C 1.374074 0.987374 1.451414 1.04409 1.528754 1.04409 C 1.586759 1.04409 1.62414 1.014443 1.62414 1.009287 C 1.62414 1.004131 1.620273 0.998975 1.615117 0.998975 C 1.609961 0.998975 1.588048 1.019599 1.5429329999999999 1.019599 C 1.470749 1.019599 1.410166 0.952571 1.410166 0.836561 C 1.410166 0.531068 1.535199 0.268112 1.617695 0.140501 C 1.634452 0.11472099999999996 1.652498 0.09023000000000003 1.652498 0.07991799999999993 C 1.652498 0.07218400000000003 1.648631 0.06573899999999999 1.635741 0.06573899999999999 C 1.621562 0.06573899999999999 1.603516 0.07605099999999998 1.575158 0.09538599999999997 C 1.370207 0.23459799999999997 1.053113 0.8133589999999999 1.020888 0.894566 C 1.020888 0.552981 1.071159 0.28486900000000004 1.09565 0.17143699999999995 L 1.116274 0.18432700000000002 C 1.124008 0.18948299999999996 1.127875 0.19206100000000004 1.131742 0.19206100000000004 C 1.135609 0.19206100000000004 1.142054 0.18303800000000003 1.142054 0.17917099999999997 C 1.142054 0.17530400000000002 1.138187 0.17143699999999995 1.13432 0.16885899999999998 L 1.100806 0.14565700000000004 C 1.105962 0.12503299999999995 1.10854 0.11472099999999996 1.10854 0.11214299999999999 C 1.10854 0.101831 1.100806 0.092808 1.085338 0.092808 C 1.081471 0.092808 1.073737 0.10311999999999999 1.062136 0.11987700000000001 C 0.946126 0.04898199999999997 0.810781 0.0012889999999999846 0.671569 0.0012889999999999846 C 0.434393 0.0012889999999999846 0.266823 0.11858800000000003 0.266823 0.286158 C 0.266823 0.40732399999999996 0.37381 0.48208599999999996 0.453728 0.48208599999999996 C 0.465329 0.48208599999999996 0.471774 0.478219 0.471774 0.470485 C 0.471774 0.466618 0.469196 0.46404 0.460173 0.46275099999999997 M 1.812313859375 0.796602 C 1.870318859375 0.796602 1.936057859375 0.769533 1.9940628593749998 0.710239 C 1.9940628593749998 0.710239 2.000507859375 0.7025049999999999 2.000507859375 0.697349 C 2.000507859375 0.690904 1.995351859375 0.685748 1.988906859375 0.685748 C 1.9824618593749999 0.685748 1.9760168593749998 0.6934819999999999 1.9760168593749998 0.6934819999999999 C 1.9283238593749998 0.743753 1.872896859375 0.769533 1.818758859375 0.769533 L 1.809735859375 0.769533 C 1.858717859375 0.716684 1.896098859375 0.6483669999999999 1.896098859375 0.583917 C 1.896098859375 0.496265 1.8471168593749998 0.455017 1.7852448593749999 0.455017 C 1.7104828593749999 0.455017 1.6266978593749999 0.514311 1.612518859375 0.59294 C 1.576426859375 0.632899 1.553224859375 0.687037 1.553224859375 0.7489089999999999 C 1.553224859375 0.819804 1.5957618593749998 0.857185 1.651188859375 0.857185 C 1.6924368593749999 0.857185 1.741418859375 0.8326939999999999 1.7839558593749998 0.7953129999999999 C 1.7929788593749998 0.796602 1.8020018593749998 0.796602 1.812313859375 0.796602 M 1.642165859375 0.612275 C 1.682124859375 0.565871 1.738840859375 0.536224 1.7929788593749998 0.5284899999999999 C 1.8020018593749998 0.527201 1.807157859375 0.5259119999999999 1.807157859375 0.518178 C 1.807157859375 0.510444 1.798134859375 0.5078659999999999 1.786533859375 0.5078659999999999 C 1.7478638593749998 0.5078659999999999 1.705326859375 0.522045 1.6679458593749998 0.545247 C 1.6975928593749998 0.509155 1.7478638593749998 0.48595299999999997 1.7839558593749998 0.48595299999999997 C 1.8239148593749999 0.48595299999999997 1.8625848593749998 0.5168889999999999 1.8625848593749998 0.583917 C 1.8625848593749998 0.647078 1.822625859375 0.715395 1.773643859375 0.764377 C 1.6950148593749998 0.745042 1.642165859375 0.679303 1.642165859375 0.612275 M 1.657633859375 0.826249 C 1.612518859375 0.826249 1.589316859375 0.803047 1.589316859375 0.7489089999999999 C 1.589316859375 0.7115279999999999 1.5983398593749998 0.679303 1.615096859375 0.649656 C 1.6292758593749999 0.710239 1.680835859375 0.764377 1.7478638593749998 0.7862899999999999 C 1.716927859375 0.810781 1.684702859375 0.826249 1.657633859375 0.826249 M 2.3472639648437497 0.710239 C 2.3472639648437497 0.710239 2.35370896484375 0.7025049999999999 2.35370896484375 0.697349 C 2.35370896484375 0.690904 2.3485529648437495 0.685748 2.3421079648437497 0.685748 C 2.33566296484375 0.685748 2.3292179648437497 0.6934819999999999 2.3292179648437497 0.6934819999999999 C 2.29828196484375 0.726996 2.1925839648437497 0.8417169999999999 2.0675509648437496 0.8417169999999999 C 2.01341296484375 0.8417169999999999 1.9850549648437499 0.810781 1.9850549648437499 0.7669549999999999 C 1.9850549648437499 0.658679 2.11395496484375 0.5375129999999999 2.2028959648437496 0.5375129999999999 C 2.22223096484375 0.5375129999999999 2.2338319648437497 0.549114 2.2338319648437497 0.565871 C 2.2338319648437497 0.587784 2.2119189648437496 0.603252 2.2119189648437496 0.608408 C 2.2119189648437496 0.614853 2.21836396484375 0.620009 2.2248089648437497 0.620009 C 2.23125396484375 0.620009 2.26218996484375 0.59294 2.26218996484375 0.565871 C 2.26218996484375 0.532357 2.23512096484375 0.510444 2.1938729648437496 0.510444 C 2.09590896484375 0.510444 1.9489629648437499 0.6445 1.9489629648437499 0.765666 C 1.9489629648437499 0.8236709999999999 1.9927889648437498 0.868786 2.0623949648437496 0.868786 C 2.20031796484375 0.868786 2.3163279648437496 0.742464 2.3472639648437497 0.710239 M 2.878309306640625 0.710239 C 2.878309306640625 0.710239 2.884754306640625 0.7025049999999999 2.884754306640625 0.697349 C 2.884754306640625 0.690904 2.880887306640625 0.685748 2.873153306640625 0.685748 C 2.866708306640625 0.685748 2.860263306640625 0.6934819999999999 2.860263306640625 0.6934819999999999 C 2.860263306640625 0.6934819999999999 2.7506983066406248 0.817226 2.668202306640625 0.817226 C 2.643711306640625 0.817226 2.632110306640625 0.806914 2.632110306640625 0.785001 C 2.632110306640625 0.725707 2.757143306640625 0.640633 2.757143306640625 0.577472 C 2.757143306640625 0.5439579999999999 2.736519306640625 0.5259119999999999 2.708161306640625 0.5259119999999999 C 2.633399306640625 0.5259119999999999 2.401379306640625 0.714106 2.308571306640625 0.815937 C 2.308571306640625 0.815937 2.352397306640625 0.723129 2.379466306640625 0.688326 C 2.543169306640625 0.560715 2.842217306640625 0.33127300000000004 2.842217306640625 0.22170800000000002 C 2.842217306640625 0.186905 2.817726306640625 0.158547 2.776478306640625 0.158547 C 2.6462893066406252 0.158547 2.494187306640625 0.376388 2.370443306640625 0.613564 C 2.318883306640625 0.712817 2.257011306640625 0.843006 2.257011306640625 0.855896 C 2.257011306640625 0.866208 2.268612306640625 0.875231 2.277635306640625 0.875231 C 2.287947306640625 0.875231 2.296970306640625 0.864919 2.309860306640625 0.8507399999999999 C 2.4155583066406248 0.737308 2.643711306640625 0.558137 2.701716306640625 0.558137 C 2.712028306640625 0.558137 2.721051306640625 0.5645819999999999 2.721051306640625 0.577472 C 2.721051306640625 0.629032 2.596018306640625 0.70895 2.596018306640625 0.7862899999999999 C 2.596018306640625 0.8236709999999999 2.621798306640625 0.845584 2.659179306640625 0.845584 C 2.761010306640625 0.845584 2.878309306640625 0.710239 2.878309306640625 0.710239 M 2.779056306640625 0.186905 C 2.798391306640625 0.186905 2.811281306640625 0.20108399999999993 2.811281306640625 0.21784099999999995 C 2.811281306640625 0.31967199999999996 2.523834306640625 0.54138 2.391067306640625 0.645789 C 2.518678306640625 0.39959 2.673358306640625 0.186905 2.779056306640625 0.186905 M 3.185056689941406 0.827538 C 3.2327496899414063 0.827538 3.289465689941406 0.788868 3.361649689941406 0.710239 C 3.361649689941406 0.710239 3.3680946899414064 0.7025049999999999 3.3680946899414064 0.697349 C 3.3680946899414064 0.690904 3.362938689941406 0.685748 3.3552046899414063 0.685748 C 3.3500486899414064 0.685748 3.343603689941406 0.6934819999999999 3.343603689941406 0.6934819999999999 C 3.276575689941406 0.7682439999999999 3.227593689941406 0.800469 3.1915016899414064 0.800469 C 3.157987689941406 0.800469 3.136074689941406 0.778556 3.136074689941406 0.730863 C 3.136074689941406 0.685748 3.161854689941406 0.654812 3.161854689941406 0.647078 C 3.161854689941406 0.6367659999999999 3.152831689941406 0.630321 3.145097689941406 0.630321 C 3.1334966899414063 0.630321 3.109005689941406 0.67028 3.0742026899414063 0.7115279999999999 C 3.031665689941406 0.763088 2.945302689941406 0.844295 2.891164689941406 0.844295 C 2.8705406899414063 0.844295 2.8576506899414063 0.833983 2.8576506899414063 0.806914 C 2.8576506899414063 0.701216 3.0161976899414062 0.5349349999999999 3.157987689941406 0.5349349999999999 C 3.1966576899414063 0.5349349999999999 3.206969689941406 0.560715 3.206969689941406 0.578761 C 3.206969689941406 0.5916509999999999 3.203102689941406 0.598096 3.203102689941406 0.604541 C 3.203102689941406 0.6096969999999999 3.2056806899414063 0.612275 3.2108366899414063 0.612275 C 3.2185706899414064 0.612275 3.234038689941406 0.594229 3.234038689941406 0.571027 C 3.234038689941406 0.538802 3.206969689941406 0.506577 3.1463866899414064 0.506577 C 3.0058856899414064 0.506577 2.822847689941406 0.680592 2.822847689941406 0.806914 C 2.822847689941406 0.8507399999999999 2.8524946899414063 0.873942 2.887297689941406 0.873942 C 2.9530366899414062 0.873942 3.0510006899414064 0.779845 3.1012716899414063 0.72184 C 3.1012716899414063 0.783712 3.136074689941406 0.827538 3.185056689941406 0.827538" fill="#b9a12a" fill-rule="nonzero"></path></g><g><path d=" M 4.936221321380822 0.15339099999999994 C 4.858881321380822 0.15339099999999994 4.445112321380822 0.610986 4.445112321380822 0.849451 C 4.445112321380822 0.867497 4.456713321380822 0.8790979999999999 4.468314321380822 0.8790979999999999 C 4.474759321380822 0.8790979999999999 4.477337321380822 0.875231 4.477337321380822 0.867497 C 4.477337321380822 0.641922 4.8060323213808225 0.25393299999999996 4.933643321380822 0.18948299999999996 C 4.949111321380822 0.18174899999999994 4.952978321380822 0.176593 4.952978321380822 0.16885899999999998 C 4.952978321380822 0.16112499999999996 4.945244321380822 0.15339099999999994 4.936221321380822 0.15339099999999994 M 4.919464321380822 0.882965 C 4.937510321380822 0.882965 4.943955321380822 0.880387 4.943955321380822 0.872653 C 4.943955321380822 0.864919 4.933643321380822 0.8610519999999999 4.919464321380822 0.8610519999999999 C 4.7067793213808224 0.8610519999999999 4.522452321380822 0.919057 4.522452321380822 1.045379 C 4.522452321380822 1.104673 4.5791683213808225 1.162678 4.691311321380822 1.162678 C 4.884661321380822 1.162678 5.075433321380822 1.01831 5.075433321380822 0.833983 C 5.075433321380822 0.692193 4.923331321380822 0.647078 4.923331321380822 0.647078 C 4.9864923213808225 0.635477 5.315187321380822 0.509155 5.315187321380822 0.27197899999999997 C 5.315187321380822 0.10827600000000004 5.183709321380822 0 4.8962623213808225 0 C 4.505695321380822 0 4.170555321380822 0.20752899999999996 4.166688321380822 0.417636 C 4.164110321380822 0.520756 4.238872321380822 0.569738 4.318790321380822 0.569738 C 4.381951321380822 0.569738 4.4257773213808225 0.538802 4.4257773213808225 0.529779 C 4.4257773213808225 0.5259119999999999 4.423199321380822 0.523334 4.419332321380822 0.523334 C 4.410309321380822 0.523334 4.379373321380822 0.545247 4.331680321380822 0.545247 C 4.255629321380822 0.545247 4.202780321380822 0.500132 4.202780321380822 0.41634699999999997 C 4.202780321380822 0.22944200000000003 4.531475321380822 0.03222499999999995 4.8962623213808225 0.03222499999999995 C 5.157929321380822 0.03222499999999995 5.281673321380822 0.12761100000000003 5.281673321380822 0.27326799999999996 C 5.281673321380822 0.49497599999999997 4.9504003213808225 0.63161 4.8421243213808225 0.63161 C 4.826656321380822 0.63161 4.7879863213808225 0.622587 4.766073321380822 0.622587 C 4.737715321380822 0.622587 4.719669321380822 0.634188 4.719669321380822 0.649656 C 4.719669321380822 0.663835 4.731270321380822 0.676725 4.766073321380822 0.676725 C 4.7970093213808225 0.676725 4.8421243213808225 0.661257 4.862748321380822 0.661257 C 4.889817321380822 0.661257 5.041919321380822 0.70895 5.041919321380822 0.833983 C 5.041919321380822 0.99253 4.864037321380822 1.131742 4.692600321380822 1.131742 C 4.599792321380822 1.131742 4.558544321380822 1.086627 4.558544321380822 1.0428009999999999 C 4.558544321380822 0.942259 4.729981321380822 0.882965 4.919464321380822 0.882965 M 5.620701720794885 0.710239 C 5.620701720794885 0.710239 5.627146720794885 0.7025049999999999 5.627146720794885 0.697349 C 5.627146720794885 0.690904 5.623279720794884 0.685748 5.615545720794884 0.685748 C 5.609100720794885 0.685748 5.602655720794885 0.6934819999999999 5.602655720794885 0.6934819999999999 C 5.602655720794885 0.6934819999999999 5.475044720794885 0.846873 5.329387720794885 0.846873 C 5.276538720794885 0.846873 5.2417357207948845 0.814648 5.2417357207948845 0.765666 C 5.2417357207948845 0.7579319999999999 5.2417357207948845 0.7489089999999999 5.243024720794884 0.741175 C 5.351300720794884 0.715395 5.527893720794885 0.643211 5.527893720794885 0.56716 C 5.527893720794885 0.5349349999999999 5.503402720794885 0.511733 5.463443720794885 0.511733 C 5.365479720794885 0.511733 5.2056437207948845 0.641922 5.2056437207948845 0.761799 C 5.2056437207948845 0.835272 5.262359720794884 0.87652 5.329387720794885 0.87652 C 5.478911720794884 0.87652 5.620701720794885 0.710239 5.620701720794885 0.710239 M 5.468599720794884 0.540091 C 5.486645720794884 0.540091 5.496957720794884 0.551692 5.496957720794884 0.563293 C 5.496957720794884 0.622587 5.3500117207948845 0.688326 5.252047720794884 0.7115279999999999 C 5.2868507207948845 0.623876 5.393837720794885 0.540091 5.468599720794884 0.540091 M 5.9274616919862915 0.827538 C 5.975154691986291 0.827538 6.031870691986291 0.788868 6.104054691986291 0.710239 C 6.104054691986291 0.710239 6.110499691986291 0.7025049999999999 6.110499691986291 0.697349 C 6.110499691986291 0.690904 6.105343691986291 0.685748 6.097609691986291 0.685748 C 6.092453691986291 0.685748 6.086008691986291 0.6934819999999999 6.086008691986291 0.6934819999999999 C 6.018980691986291 0.7682439999999999 5.969998691986291 0.800469 5.933906691986291 0.800469 C 5.9003926919862915 0.800469 5.878479691986291 0.778556 5.878479691986291 0.730863 C 5.878479691986291 0.685748 5.904259691986291 0.654812 5.904259691986291 0.647078 C 5.904259691986291 0.6367659999999999 5.895236691986291 0.630321 5.887502691986291 0.630321 C 5.875901691986291 0.630321 5.851410691986291 0.67028 5.816607691986291 0.7115279999999999 C 5.774070691986291 0.763088 5.687707691986291 0.844295 5.633569691986291 0.844295 C 5.612945691986291 0.844295 5.600055691986291 0.833983 5.600055691986291 0.806914 C 5.600055691986291 0.701216 5.758602691986291 0.5349349999999999 5.9003926919862915 0.5349349999999999 C 5.939062691986291 0.5349349999999999 5.949374691986291 0.560715 5.949374691986291 0.578761 C 5.949374691986291 0.5916509999999999 5.9455076919862915 0.598096 5.9455076919862915 0.604541 C 5.9455076919862915 0.6096969999999999 5.948085691986291 0.612275 5.953241691986291 0.612275 C 5.960975691986291 0.612275 5.976443691986291 0.594229 5.976443691986291 0.571027 C 5.976443691986291 0.538802 5.949374691986291 0.506577 5.888791691986291 0.506577 C 5.748290691986291 0.506577 5.5652526919862915 0.680592 5.5652526919862915 0.806914 C 5.5652526919862915 0.8507399999999999 5.594899691986291 0.873942 5.629702691986291 0.873942 C 5.695441691986291 0.873942 5.793405691986291 0.779845 5.843676691986291 0.72184 C 5.843676691986291 0.783712 5.878479691986291 0.827538 5.9274616919862915 0.827538 M 6.632526439544884 0.710239 C 6.632526439544884 0.710239 6.638971439544885 0.7025049999999999 6.638971439544885 0.697349 C 6.638971439544885 0.690904 6.633815439544884 0.685748 6.626081439544884 0.685748 C 6.620925439544885 0.685748 6.614480439544884 0.6934819999999999 6.614480439544884 0.6934819999999999 C 6.614480439544884 0.6934819999999999 6.511360439544885 0.815937 6.421130439544885 0.815937 C 6.397928439544884 0.815937 6.379882439544884 0.801758 6.379882439544884 0.778556 C 6.379882439544884 0.7205509999999999 6.5049154395448845 0.635477 6.5049154395448845 0.56716 C 6.5049154395448845 0.536224 6.481713439544884 0.511733 6.448199439544885 0.511733 C 6.352813439544884 0.511733 6.172353439544884 0.658679 6.074389439544884 0.772111 C 6.119504439544884 0.6934819999999999 6.181376439544884 0.612275 6.227780439544884 0.559426 C 6.236803439544884 0.549114 6.240670439544885 0.545247 6.240670439544885 0.540091 C 6.240670439544885 0.5336460000000001 6.230358439544885 0.5246230000000001 6.222624439544885 0.5246230000000001 C 6.203289439544885 0.5246230000000001 6.101458439544884 0.665124 6.0524764395448845 0.7489089999999999 C 6.0254074395448844 0.7953129999999999 6.009939439544884 0.826249 6.009939439544884 0.836561 C 6.009939439544884 0.848162 6.018962439544884 0.855896 6.027985439544884 0.855896 C 6.035719439544884 0.855896 6.040875439544885 0.852029 6.049898439544885 0.840428 C 6.185243439544885 0.681881 6.357969439544885 0.542669 6.440465439544885 0.542669 C 6.455933439544885 0.542669 6.467534439544885 0.552981 6.467534439544885 0.56716 C 6.467534439544885 0.622587 6.341212439544885 0.707661 6.341212439544885 0.782423 C 6.341212439544885 0.819804 6.368281439544885 0.845584 6.409529439544884 0.845584 C 6.515227439544884 0.845584 6.632526439544884 0.710239 6.632526439544884 0.710239 M 6.635130244720665 0.710239 C 6.6866902447206655 0.652234 6.718915244720665 0.604541 6.720204244720665 0.601963 C 6.720204244720665 0.661257 6.766608244720665 0.706372 6.766608244720665 0.774689 C 6.766608244720665 0.782423 6.765319244720665 0.790157 6.764030244720665 0.796602 C 6.727938244720665 0.803047 6.690557244720665 0.8043359999999999 6.654465244720665 0.805625 C 6.608061244720665 0.808203 6.583570244720665 0.821093 6.583570244720665 0.854607 C 6.583570244720665 0.881676 6.615795244720665 0.911323 6.660910244720665 0.911323 C 6.717626244720665 0.911323 6.774342244720665 0.875231 6.792388244720665 0.815937 C 6.8503932447206655 0.801758 6.9135542447206655 0.774689 6.968981244720665 0.710239 C 6.968981244720665 0.710239 6.975426244720666 0.7025049999999999 6.975426244720666 0.697349 C 6.975426244720666 0.690904 6.970270244720665 0.685748 6.962536244720665 0.685748 C 6.957380244720666 0.685748 6.950935244720665 0.6934819999999999 6.950935244720665 0.6934819999999999 C 6.9045312447206655 0.7489089999999999 6.851682244720665 0.775978 6.797544244720665 0.788868 C 6.798833244720665 0.785001 6.798833244720665 0.781134 6.798833244720665 0.775978 C 6.798833244720665 0.69606 6.752429244720665 0.652234 6.752429244720665 0.596807 C 6.752429244720665 0.545247 6.810434244720665 0.500132 6.810434244720665 0.48595299999999997 C 6.810434244720665 0.47692999999999997 6.797544244720665 0.465329 6.787232244720665 0.465329 C 6.774342244720665 0.465329 6.751140244720665 0.497554 6.729227244720665 0.5375129999999999 C 6.706025244720665 0.578761 6.666066244720665 0.639344 6.617084244720665 0.6934819999999999 C 6.617084244720665 0.6934819999999999 6.610639244720665 0.701216 6.610639244720665 0.706372 C 6.610639244720665 0.7115279999999999 6.6145062447206655 0.716684 6.622240244720666 0.716684 C 6.628685244720665 0.716684 6.635130244720665 0.710239 6.635130244720665 0.710239 M 6.662199244720665 0.885543 C 6.631263244720666 0.885543 6.613217244720666 0.8700749999999999 6.613217244720666 0.852029 C 6.613217244720666 0.822382 6.675089244720665 0.833983 6.756296244720665 0.822382 C 6.739539244720666 0.8610519999999999 6.702158244720665 0.885543 6.662199244720665 0.885543" fill="#b9a12a" fill-rule="nonzero"></path></g><g></g></g><defs><clipPath id="SvgjsClipPath3803"><path d=" M 3.4311634375 0.26236857390921337 h 0.6505248838808222 v 0.6405188521815733 h -0.6505248838808222 Z"></path></clipPath><clipPath id="SvgjsClipPath37984e57d703-0f8e-4d4b-b555-0f9f3ce26f72"><path d=" M 3.4311634375 0.26236857390921337 L 4.081688321380822 0.26236857390921337 L 4.081688321380822 0.9028874260907866 L 3.4311634375 0.9028874260907866 Z"></path></clipPath></defs></svg>