<svg xmlns="http://www.w3.org/2000/svg" version="1.1" xmlns:xlink="http://www.w3.org/1999/xlink" width="2000" height="86" viewBox="0 0 2000 86"><svg xml:space="preserve" width="2000" height="86" data-version="2" data-id="lg_6pCwmQAWdSKczTTvJd" viewBox="0 0 532 86" x="0" y="0"><rect width="100%" height="100%" fill="transparent"></rect><path fill="#867400" d="M121.86 59.225q-1.42 0-1.9-.71-1.42-2.05-1.42-4.98 0-6.79 7.27-19.51 4.66-7.98 14.38-21.49-4.11 3.4-8.93 7.82-4.82 4.43-10.35 9.8-7.19 7.03-11.73 12.36-4.54 5.33-6.52 8.81-2.05 3.71-4.98 3.71-1.34 0-1.34-.94 0-.32.24-.64 1.34-2.13 3.47-5.65 2.14-3.51 5.06-8.41 8.53-14.85 12.25-23.62 1.34-3.32 1.34-4.82 0-1.26-.87-1.26-1.19 0-3.71 2.13-8.77 7.35-19.67 20.46-4.59 5.45-8.02 10.07-3.44 4.63-5.81 8.34-1.9 2.92-1.9 4.19 0 .47.36.67l.36.19q0 .08-1.43 1.19-1.26.63-2.84.63-3.24 0-2.77-1.5 1.11-3.55 7.35-12.88 8.14-12.08 10.59-16.51 5.29-9.56 5.29-15.24 0-3.95-2.05-5.61-2.06-1.66-6.24-1.66-9.25 0-19.12 7.98-4.27 3.47-7.98 7.86-3.71 4.38-6.01 9.12-2.29 4.74-2.29 9.32 0 8.22 7.75 8.22 9.08 0 14.06-6.56 1.89-2.6 1.89-4.9 0-1.34-.79-1.81-.08-.08-.08-.24 0-.32.48-.32 2.05 0 2.05 2.69 0 1.66-1.42 4.19-1.82 3.16-5.45 5.37-4.58 2.84-10.11 2.84-5.37 0-8.61-3.39-3.24-3.4-3.24-8.93 0-12.48 16.27-25.52 3-2.37 7.15-4.07 4.15-1.69 8.57-2.6 4.43-.91 8.14-.91 5.37 0 8.18 1.78 2.8 1.77 2.8 6.2 0 5.53-4.5 14.93-1.42 2.92-6.4 10.66l6.08-7.74q2.29-3 6.16-7.11t9.17-9.32q2.29-2.21 5.21-3.79t4.98-1.58q2.84 0 2.84 3 0 2.61-2.13 7.11-2.84 6-7.11 13.98-1.34 2.45-1.82 4.19-.47 1.74-.63 1.97.32-.39 1.54-1.85 1.23-1.46 3.44-3.99 2.68-3 6.4-6.6 3.71-3.59 8.53-7.7l12.64-10.43q1.5-1.26 2.68-1.26 1.11 0 1.62 1.3.52 1.3 1.07 3.36.4 1.34-3.79 5.61-9.88 10.11-17.07 22.59-6.55 11.54-6.55 16.67 0 2.29 1.5 2.29.95 0 4.74-1.66 3.32-1.5 4.34-1.74.4.16.4.4 0 1.18-4.19 3.32-4.11 2.13-6.87 2.13"></path><path fill="#867400" d="M141.61 54.095h-1.27q-1.97 0-3.08-1.86-1.1-1.86-1.1-3.6 0-4.74 6.87-13.27 6.95-8.61 11.22-8.61 4.03 0 4.03 4.27 0 .63-.12 1.34-.12.71-.28 1.5.16.24.79.24 2.14 0 5.06-1.5-.08 1.34-6.24 3.87.87 2.61-5.22 9.95-6.24 7.67-10.66 7.67m.16-2.37q3.39 0 8.69-6.25 5.13-6.08 5.13-8.76-1.26-.72-3.16-3.64-2.68 0-7.74 6.48-4.98 6.32-4.82 9.72.08 2.45 1.9 2.45m23.38 3.23q-2.53 0-4.58-1.62-2.06-1.61-2.06-4.3 0-5.61 6.88-12.8 7.03-7.27 12.56-7.27 1.89 0 3 .99t1.11 2.41q0 1.98-.95 3.63-1.11 2.06-3.16 2.06-2.06 0-2.06-1.27 0-.86 1.03-2.6 1.11-1.82 1.11-1.9 0-.16-.24-.16-2.21.24-6.16 3.24-1.74 1.35-3.04 2.53-1.31 1.19-2.1 2.29l-3.08 4.5q-.47.72-.98 2.45-.52 1.74-.52 2.61 0 1.58 1.07 2.61 1.06 1.02 2.72 1.02 3.95 0 10.43-5.13 5.22-4.11 8.38-8.3.39-.47.94-.47.56 0 .56.32 0 .23-.4.79-4.34 5.76-10.19 9.95-6.24 4.42-10.27 4.42"></path><path fill="#867400" d="M179.37 54.325q-2.29 0-2.29-1.34 0-.79.95-2.53 3.63-6.48 6.52-11.49 2.88-5.02 5.09-8.5 9.4-15.08 13.27-16.35.16 0 .24-.04.08-.04.16-.04 1.02 0 1.34 1.66-.24 1.66-8.22 12.01-4.18 5.29-6.51 8.73-2.33 3.44-2.89 5.02 2.61-1.9 5.61-4.03 3-2.14 5.85-4.07 2.84-1.94 5.13-3.16 2.29-1.23 3.56-1.38.16 0 .39-.04.24-.04.32-.04 2.21 0 2.21 2.05 0 .55-1.42 2.45-1.42 1.9-4.35 5.85-5.21 6.95-5.21 10.42 0 1.82 1.34 1.82 1.43-.08 3.28-1.26 1.86-1.19 3.75-2.93 1.9-1.73 3.44-3.43 1.54-1.7 2.33-2.65.71-.71 1.11-.71.31 0 .31.32 0 .63-.63 1.5-.95 1.18-2.8 3.08-1.86 1.89-4.03 3.83-2.17 1.93-4.11 3.24-1.94 1.3-2.88 1.3-4.66 0-4.66-5.45 0-3.08 2.84-8.06 1.11-1.89 2.29-3.79 1.19-1.9 2.37-3.79-10.11 5.05-18.33 14.93-1.02 1.42-2.13 3.04-1.11 1.62-1.98 2.73-.86 1.1-1.26 1.1"></path><path fill="#867400" d="M216.5 54.325q-1.9 0-3.79-1.34-1.9-1.34-2.13-3.16-.79-6.08 7.66-14.46 8.37-8.37 15.09-8.37 1.81 0 2.84.87.55.55.83 1.5.28.95.44.95.31 0 .55-.12.24-.12.55-.12.95 0 1.66.71t.79 1.26q.08.16-5.06 7.83-5.13 7.5-4.66 10.19.4 1.81 1.74 1.81 4.11 0 15.01-13.58.24-.32.48-.32.39 0 .39.55 0 .63-.71 1.58-10.03 13.51-15.41 13.51-.71 0-1.34-.24-3.47-1.34-3.47-5.21 0-1.34.31-2.69l-4.9 4.74q-2.21 2.22-3.99 3.16-1.77.95-2.88.95m-.71-1.74q4.58 0 12.48-10.03l8.38-11.53q-.64-1.11-2.06-1.11-4.82 0-13.03 7.74-8.54 7.9-7.67 13.04.4 1.89 1.9 1.89m124.03 5.06q-12.48 0-16.99-8.53-8.13 6.79-11.61 6.79-1.66 0-2.57-1.58-.9-1.58-.9-3.55 0-4.74 3.63-11.06 1.58-2.77 3.48-5.06 1.89-2.29 4.26-2.29 2.29 0 3.48 3.79l2.37 7.59q1.26-1.35 2.8-3.28 1.54-1.94 3.44-4.54l7.03-9.48q12.96-16.83 16.98-18.41 1.43-.55 2.85-.55 1.58 0 2.57.67.98.67.98 1.54 0 1.42-2.29 1.66-2.37 1.34-9.24 7.98-3.16 3.08-5.1 5.09-1.93 2.02-2.64 3.04-8.85 12.33-16.36 18.96 4.82 9.56 14.46 9.56 3.64 0 7.39-1.54 3.75-1.54 6.95-4.07 3.2-2.53 5.17-5.65 1.98-3.12 1.98-6.2 0-3.24-2.29-5.84-2.29-2.61-5.61-3.72l-1.19-.15q-1.18-.16-3.63-.48-3.71-.47-3.71-1.5 0-.71.91-1.26.9-.56 1.85-.56.71 0 1.66.32t1.7.59l.75.28q.63.08 1.42.12.79.04 1.58.04 5.22 0 9.48-1.66 4.11-1.66 6.01-4.58 1.89-2.93 1.89-6.8 0-3.95-2.49-6.24-2.48-2.29-6.55-3.28-4.07-.99-8.81-.99-9.24 0-17.58 2.69-8.33 2.69-14.42 8.93-4.66 4.82-4.66 8.06 0 2.29 1.19 3.87.31.39.71.79.39.39.95.79.39.23-.48.23-4.9-1.1-4.9-6.55 0-5.45 5.53-10.27 4.27-3.72 9.76-6.01 5.49-2.29 11.61-3.32 6.13-1.02 12.13-1.02 4.27 0 8.22.63 3.95.63 7.11 2.09t5.01 3.83q1.86 2.37 1.86 5.85 0 4.9-2.61 7.82-2.6 2.92-7.03 4.5-5.21 1.82-11.22 1.9 3.32.16 5.81 1.74 2.49 1.58 3.87 4.11 1.38 2.52 1.38 5.53 0 4.03-2.41 7.46-2.41 3.44-6.43 5.93-4.03 2.49-8.85 3.87-4.82 1.38-9.64 1.38m-27.57-3.55q2.53 0 9.72-7.19l-.24-.32q-3.16-10.51-5.06-10.51-.08 0-.39.16-5.85 8.45-5.85 13.59 0 1.11.44 2.69.43 1.58 1.38 1.58m62.8.86q-2.52 0-4.58-1.62-2.05-1.61-2.05-4.3 0-5.61 6.87-12.8 7.03-7.27 12.56-7.27 1.82 0 2.96.99 1.15.99 1.15 2.41 0 4.42-7.03 8.69-6.24 3.79-10.51 3.79-.63 0-1.1-.16-1.19 2.14-1.19 4.51 0 4.11 3.87 4.11 3.95 0 10.19-5.3 4.82-3.87 8.22-8.21.71-.95 1.26-.95.48 0 .48.47 0 .48-.64 1.35-2.21 2.92-4.74 5.37-2.52 2.45-5.45 4.5-6.08 4.42-10.27 4.42m.48-11.85q3 0 7.82-3 1.58-1.1 3.12-2.49 1.54-1.38 2.53-2.8.98-1.42.98-2.53 0-1.03-1.65-1.03-2.37 0-6.64 3.56-2.05 1.74-3.95 3.79-1.9 2.06-3.24 4.35.47.15 1.03.15"></path><path fill="#867400" d="M396.62 54.325q-1.9 0-3.79-1.34-1.9-1.34-2.13-3.16-.79-6.08 7.66-14.46 8.37-8.37 15.09-8.37 1.81 0 2.84.87.55.55.83 1.5.28.95.44.95.31 0 .55-.12.24-.12.55-.12.95 0 1.66.71t.79 1.26q.08.16-5.06 7.83-5.13 7.5-4.66 10.19.4 1.81 1.74 1.81 4.11 0 15.01-13.58.24-.32.48-.32.39 0 .39.55 0 .63-.71 1.58-10.03 13.51-15.41 13.51-.71 0-1.34-.24-3.47-1.34-3.47-5.21 0-1.34.31-2.69l-4.9 4.74q-2.21 2.22-3.99 3.16-1.77.95-2.88.95m-.71-1.74q4.58 0 12.48-10.03l8.38-11.53q-.64-1.11-2.06-1.11-4.82 0-13.03 7.74-8.54 7.9-7.67 13.04.4 1.89 1.9 1.89"></path><path fill="#867400" d="M444.02 54.095q-2.13 0-3-1.23-.87-1.22-.87-3.04 0-4.58 3.16-9.8l5.06-8.21q-5.38 3.95-10.67 9.87-1.42 1.58-3.2 3.72-1.78 2.13-3.91 4.89-2.84 3.72-3.4 3.72-1.1 0-1.81-.99t-.71-1.78q0-.63.39-2.33.4-1.7.95-2.96.55-1.34 1.14-2.65.6-1.3 1.15-2.57l-4.74 4.98-.95.95q-.79.79-1.26.79-.4 0-.4-.55 0-.16.12-.44.12-.27.51-.67 1.19-1.18 2.45-2.53 1.27-1.34 2.61-3.08.71-.87 2.13-2.65 1.43-1.77 3.12-3.83 1.7-2.05 3.2-3.79.4-.55.87-.75.48-.2.63-.2 2.14 0 2.14 1.66 0 .48-.24.95-7.11 9.8-8.53 14.93 9.16-9.16 14.73-13.78 5.57-4.63 7.94-4.63 1.27 0 1.94.4.67.39.67 1.5 0 .4-.08.63-.24.56-3.24 4.43-1.82 2.21-3.2 4.03-1.38 1.81-2.25 3.16-1.42 2.21-2.13 4.14-.71 1.94-.71 3.28 0 .55.15 1.34.16.79.95.79 1.82 0 5.69-3.16 1.82-1.58 3.4-3.2 1.58-1.61 3-3.19.31-.32 1.03-1.23.71-.91.86-.91.32 0 .32.63 0 .32-.35 1.07-.36.75-.76 1.15-.86 1.02-2.56 2.84-1.7 1.82-3.79 3.71-2.1 1.9-4.07 3.24-1.98 1.35-3.48 1.35"></path><path fill="#867400" d="M464.8 54.095q-3.72 0-5.49-2.45-1.78-2.45-2.89-6.8-1.42 1.42-1.97 1.42-.4 0-.4-.63 0-.47.4-.87l2.01-2.45q2.02-2.44 6.84-6.87l9.95-9.32q2.05-1.98 3.28-3 1.22-1.03 1.78-1.03 2.52 0 2.52 1.9 0 .94-1.02 2.21-.79.95-1.15 1.46-.35.51-.43.59-1.42 2.45-2.61 8.77-.87 4.66-1.5 7.66-.63 3.01-1.03 4.35 3.32-.08 6.56-2.05 3.24-1.98 6.95-6.48l.48-.48q.31-.31.63-.31.47 0 .47.39 0 .4-.24.79-.23.4-.47.71-2.45 2.93-4.58 4.78-2.13 1.86-4.5 2.93-2.37 1.06-5.61 1.77l-2.53 1.66q-1.03.71-2.45 1.03-1.42.32-3 .32m.95-4.03q1.81 0 3-.87.87-.48 1.7-2.65t1.62-5.41q.63-2.77.98-5.41.36-2.65.67-5.1l.32-2.68q-1.82 1.34-4.58 3.87-2.77 2.53-5.45 5.29-2.69 2.77-3.48 4.07-.79 1.3-.87 1.93-.31 3.16 1.54 5.06 1.86 1.9 4.55 1.9"></path><path stroke="#000" stroke-width="3" d="M6.553 78.432h148.288m222.319-.95h148.287" vector-effect="non-scaling-stroke"></path><path fill="#1c1903" d="M178.03 84.855h-2.04l1.46-7.34.22 1.4-5.6-13.66h2.07l4.9 11.92-1.12.03 9.66-11.95h2.21l-11 13.69.7-1.43zm17.39.14q-2.1 0-3.65-.77-1.56-.77-2.38-2.17-.83-1.4-.83-3.34 0-2.52 1.07-4.48 1.06-1.96 2.91-3.09t4.17-1.13q1.96 0 3.39.74 1.43.74 2.22 2.14.8 1.4.8 3.36 0 .45-.05.91-.06.46-.14.88h-12.91l.25-1.48H202l-.81.56q.28-1.77-.25-2.97-.53-1.2-1.64-1.83-1.11-.63-2.65-.63-1.79 0-3.19.88t-2.18 2.43q-.79 1.56-.79 3.63 0 2.21 1.28 3.4 1.27 1.19 3.82 1.19 1.48 0 2.74-.49 1.26-.49 2.08-1.36l.89 1.43q-1.03 1.04-2.59 1.61-1.55.58-3.29.58m31.14-14.98q1.99 0 3.23.77 1.25.77 1.72 2.22.48 1.46.06 3.47l-1.68 8.38h-1.99l1.68-8.4q.45-2.19-.4-3.42-.86-1.23-3.1-1.23-2.21 0-3.71 1.23t-2 3.7l-1.62 8.12h-1.99l1.68-8.4q.45-2.19-.42-3.42t-3.08-1.23q-2.27 0-3.75 1.29-1.49 1.28-2.02 3.86l-1.57 7.9h-1.99l2.92-14.7h1.9l-.84 4.22-.42-.72q1.06-1.91 2.69-2.78 1.62-.86 3.67-.86 1.54 0 2.64.51 1.11.52 1.74 1.52.63.99.68 2.36l-1.03-.22q1.09-2.1 2.9-3.14 1.8-1.03 4.1-1.03m15.48 14.98q-2.1 0-3.65-.77-1.56-.77-2.38-2.17-.83-1.4-.83-3.34 0-2.52 1.07-4.48 1.06-1.96 2.91-3.09t4.17-1.13q1.96 0 3.39.74 1.43.74 2.22 2.14.8 1.4.8 3.36 0 .45-.05.91-.06.46-.14.88h-12.91l.25-1.48h11.73l-.81.56q.28-1.77-.25-2.97-.53-1.2-1.64-1.83-1.11-.63-2.65-.63-1.79 0-3.19.88t-2.18 2.43q-.79 1.56-.79 3.63 0 2.21 1.28 3.4 1.27 1.19 3.82 1.19 1.48 0 2.74-.49 1.26-.49 2.08-1.36l.89 1.43q-1.03 1.04-2.59 1.61-1.55.58-3.29.58m20.3-14.98q1.99 0 3.26.77 1.28.77 1.77 2.22.49 1.46.07 3.47l-1.68 8.38h-1.99l1.68-8.4q.45-2.19-.46-3.42t-3.21-1.23q-2.35 0-3.9 1.29-1.56 1.28-2.09 3.86l-1.57 7.9h-1.99l2.92-14.7h1.9l-.84 4.22-.42-.72q1.06-1.91 2.76-2.78 1.69-.86 3.79-.86m22.82 14.98q-2.1 0-3.62-.77-1.53-.77-2.36-2.17-.82-1.4-.82-3.31 0-2.52 1.09-4.49 1.09-1.98 3.04-3.11 1.94-1.13 4.44-1.13 2.04 0 3.51.74 1.47.74 2.28 2.2l-1.68.98q-.61-1.12-1.69-1.66-1.08-.53-2.59-.53-1.85 0-3.31.9-1.45.89-2.28 2.45-.82 1.55-.82 3.57 0 2.15 1.27 3.36 1.27 1.2 3.63 1.2 1.42 0 2.64-.54 1.22-.55 2-1.59l1.43 1.1q-.95 1.31-2.6 2.05-1.65.75-3.56.75m15.65 0q-2.04 0-3.54-.77t-2.32-2.17q-.83-1.4-.83-3.31 0-2.52 1.09-4.49 1.1-1.98 3.03-3.11 1.93-1.13 4.39-1.13 2.05 0 3.55.75 1.49.76 2.32 2.16.83 1.4.83 3.3 0 2.52-1.1 4.5-1.09 1.97-3.01 3.12-1.91 1.15-4.41 1.15m.14-1.77q1.85 0 3.29-.88 1.45-.88 2.27-2.45.83-1.57.83-3.56 0-2.18-1.28-3.38-1.27-1.21-3.57-1.21-1.82 0-3.27.9-1.46.89-2.28 2.45-.83 1.55-.83 3.57 0 2.15 1.27 3.36 1.28 1.2 3.57 1.2m13.19 1.63h-1.99l3.31-16.58q.42-2.07 1.69-3.21 1.28-1.13 3.35-1.13.89 0 1.68.25.78.25 1.29.7l-.9 1.46q-.78-.73-2.07-.73-1.29 0-2.06.69-.77.68-1.08 2.19l-.45 2.16-.11.87zm7.06-13.05h-9.07l.3-1.65h9.1zm2.43 13.05h-1.98l3.3-16.58q.42-2.07 1.69-3.21 1.28-1.13 3.35-1.13.9 0 1.68.25.78.25 1.29.7l-.9 1.46q-.78-.73-2.07-.73-1.29 0-2.06.69-.77.68-1.08 2.19l-.44 2.16-.12.87zm7.06-13.05h-9.07l.31-1.65h9.1zm6.83 13.19q-2.1 0-3.65-.77-1.56-.77-2.38-2.17-.83-1.4-.83-3.34 0-2.52 1.07-4.48 1.06-1.96 2.91-3.09t4.17-1.13q1.96 0 3.39.74 1.43.74 2.22 2.14.8 1.4.8 3.36 0 .45-.05.91-.06.46-.14.88h-12.91l.25-1.48h11.73l-.81.56q.28-1.77-.25-2.97-.53-1.2-1.64-1.83-1.11-.63-2.65-.63-1.79 0-3.19.88t-2.18 2.43q-.79 1.56-.79 3.63 0 2.21 1.28 3.4 1.27 1.19 3.82 1.19 1.48 0 2.74-.49 1.26-.49 2.08-1.36l.89 1.43q-1.03 1.04-2.59 1.61-1.55.58-3.29.58m16.91 0q-2.1 0-3.65-.77-1.55-.77-2.38-2.17-.83-1.4-.83-3.34 0-2.52 1.07-4.48 1.06-1.96 2.91-3.09t4.17-1.13q1.96 0 3.39.74 1.43.74 2.23 2.14.79 1.4.79 3.36 0 .45-.05.91-.06.46-.14.88h-12.91l.25-1.48h11.73l-.81.56q.28-1.77-.25-2.97-.53-1.2-1.64-1.83-1.1-.63-2.64-.63-1.8 0-3.2.88-1.4.88-2.18 2.43-.78 1.56-.78 3.63 0 2.21 1.27 3.4t3.82 1.19q1.49 0 2.75-.49t2.07-1.36l.89 1.43q-1.03 1.04-2.59 1.61-1.55.58-3.29.58"></path><path fill="#867400" d="M301.66 29.467a.738.738 0 0 0-.5-.772 1.153 1.153 0 0 0-.767.062q-.734.26-2.92-.492-.613-.217-1.17-.428a22.605 22.605 0 0 0-1.279-.45q-.43-.139-.885-.305c-1.3-.477-2.735-.986-4.19-.345-1.914.84-4.541 4.658-5.703 6.458l-.317-.48q-.007-.051-.027-.107c-1.685-6.699 3.131-19.38 3.18-19.51l.007-.017q.03-.087.033-.184v-.024l-.017-.167-.007-.036q-.02-.085-.068-.17l-.024-.028-.107-.13-.015-.014-.008-.003-.01-.014-.154-.092-.03-.01q-.088-.03-.18-.047l-.004-.002a.923.923 0 0 0-.226.02q-.095.021-.176.071l-.004-.001c-4.894 2.818-7.693 11.784-8.396 14.322a11.072 11.072 0 0 0-3.838.065c-2.492.42-4.724.3-6.63-.356-1.658-.57-2.451-1.356-2.458-1.364a.692.692 0 0 0-1.052.077 3.275 3.275 0 0 0-.436 3.012c.616 1.95 2.798 3.862 5.432 4.769 1.37.471 3.475.889 5.723.185 3.773-1.18 6.225-.706 7.35-.319.315.108.502.202.565.233 2.067 2.908 4.084 6.686 3.417 9.657-.358 1.565-1.438 2.745-3.293 3.584-.368-3.65-5.057-7.815-11.757-10.122l-.253-.088c-7.989-2.672-15.307-1.596-16.662 2.45-1.33 3.977 3.755 9.203 11.576 11.896l.253.087c7.99 2.673 15.308 1.597 16.662-2.45l.064-.227c2.662-1.016 4.264-2.635 4.76-4.826.326-1.43.136-2.988-.358-4.544.944-.163 2.075-.769 2.852-1.765.85-1.078 5.187-3.727 7.193-4.012 1.392-.204 3.86-1.56 4.618-2.557q.18-.168.216-.414zM266.788 43.9q-1.275-.166-2.296-.517-.776-.267-1.342-.609 1.779.56 4.193.39 1.96-.135 3.623.433a7.964 7.964 0 0 1 2.59 1.492c-1.187-.394-2.812-.676-6.764-1.187"></path></svg></svg>