<svg xmlns="http://www.w3.org/2000/svg" version="1.1" xmlns:xlink="http://www.w3.org/1999/xlink" width="2000" height="156" viewBox="0 0 2000 156"><svg xml:space="preserve" width="2000" height="156" data-version="2" data-id="lg_6pCwmQAWdSKczTTvJd" viewBox="0 0 742 156" x="0" y="0"><rect width="100%" height="100%" fill="transparent"></rect><path fill="#867400" d="M128.8 97.62q-2.35 0-3.14-1.17-2.35-3.4-2.35-8.23 0-11.24 12.02-32.27 7.71-13.19 23.78-35.53-6.8 5.61-14.76 12.93-7.97 7.32-17.12 16.2-11.89 11.63-19.4 20.44-7.51 8.82-10.77 14.57-3.4 6.14-8.23 6.14-2.23 0-2.23-1.57 0-.52.4-1.04 2.22-3.53 5.74-9.34 3.53-5.82 8.36-13.92 14.11-24.56 20.25-39.06 2.22-5.48 2.22-7.97 0-2.09-1.43-2.09-1.96 0-6.14 3.53-14.5 12.15-32.53 33.84-7.58 9.01-13.26 16.65-5.68 7.64-9.6 13.78-3.14 4.84-3.14 6.93 0 .78.59 1.11l.59.33q0 .13-2.35 1.95-2.09 1.05-4.71 1.05-5.35 0-4.57-2.48 1.83-5.88 12.15-21.3 13.46-19.98 17.51-27.3 8.75-15.81 8.75-25.21 0-6.53-3.4-9.28-3.39-2.74-10.32-2.74-15.28 0-31.61 13.19-7.06 5.75-13.2 13t-9.93 15.09q-3.78 7.84-3.78 15.42 0 13.58 12.8 13.58 15.02 0 23.25-10.84 3.14-4.31 3.14-8.1 0-2.22-1.31-3.01-.13-.13-.13-.39 0-.52.78-.52 3.4 0 3.4 4.44 0 2.75-2.35 6.93-3.01 5.22-9.01 8.88-7.58 4.7-16.73 4.7-8.88 0-14.24-5.62-5.35-5.61-5.35-14.76 0-20.64 26.91-42.19 4.96-3.92 11.82-6.73 6.86-2.81 14.18-4.31 7.31-1.5 13.45-1.5 8.89 0 13.52 2.94 4.64 2.93 4.64 10.25 0 9.14-7.45 24.69-2.35 4.83-10.58 17.64l10.06-12.81q3.79-4.96 10.19-11.75 6.4-6.8 15.16-15.42 3.78-3.66 8.62-6.27 4.83-2.61 8.23-2.61 4.7 0 4.7 4.96 0 4.31-3.53 11.76-4.7 9.93-11.75 23.12-2.23 4.05-3.01 6.93-.78 2.87-1.04 3.26.52-.65 2.54-3.07 2.03-2.41 5.69-6.59 4.44-4.97 10.58-10.91 6.14-5.95 14.11-12.74l20.9-17.24q2.48-2.09 4.44-2.09 1.83 0 2.68 2.15.85 2.16 1.76 5.55.65 2.22-6.27 9.28-16.33 16.72-28.22 37.36-10.84 19.07-10.84 27.56 0 3.79 2.48 3.79 1.57 0 7.84-2.74 5.49-2.48 7.19-2.87.65.26.65.65 0 1.96-6.92 5.49-6.8 3.52-11.37 3.52"></path><path fill="#867400" d="M161.46 89.13h-2.09q-3.27 0-5.1-3.07-1.82-3.07-1.82-5.94 0-7.84 11.36-21.95 11.5-14.24 18.55-14.24 6.66 0 6.66 7.06 0 1.04-.19 2.22-.2 1.17-.46 2.48.26.39 1.31.39 3.52 0 8.36-2.48-.13 2.22-10.32 6.4 1.43 4.31-8.62 16.46-10.33 12.67-17.64 12.67m.26-3.92q5.62 0 14.37-10.32 8.49-10.06 8.49-14.5-2.09-1.17-5.22-6.01-4.45 0-12.81 10.71-8.23 10.46-7.96 16.07.13 4.05 3.13 4.05m38.67 5.36q-4.18 0-7.58-2.68-3.39-2.68-3.39-7.12 0-9.27 11.36-21.16 11.63-12.02 20.77-12.02 3.14 0 4.97 1.63 1.83 1.64 1.83 3.99 0 3.26-1.57 6.01-1.83 3.39-5.23 3.39-3.39 0-3.39-2.09 0-1.43 1.69-4.31 1.83-3 1.83-3.13 0-.27-.39-.27-3.66.4-10.19 5.36-2.87 2.22-5.03 4.18-2.15 1.96-3.46 3.79l-5.1 7.45q-.78 1.17-1.63 4.05-.85 2.87-.85 4.31 0 2.61 1.77 4.31 1.76 1.7 4.5 1.7 6.54 0 17.25-8.5 8.62-6.79 13.84-13.71.66-.79 1.57-.79.92 0 .92.53 0 .39-.66 1.3-7.18 9.54-16.85 16.46-10.32 7.32-16.98 7.32"></path><path fill="#867400" d="M223.9 89.52q-3.78 0-3.78-2.22 0-1.3 1.56-4.18 6.01-10.71 10.78-19.01 4.77-8.29 8.43-14.04 15.54-24.95 21.94-27.04.26 0 .4-.07.13-.06.26-.06 1.69 0 2.22 2.74-.39 2.75-13.59 19.86-6.92 8.75-10.78 14.43-3.85 5.69-4.76 8.3 4.31-3.14 9.27-6.66 4.96-3.53 9.67-6.73 4.7-3.2 8.49-5.23 3.79-2.02 5.88-2.28.26 0 .65-.07.39-.06.52-.06 3.66 0 3.66 3.39 0 .92-2.35 4.05-2.35 3.14-7.19 9.67-8.62 11.5-8.62 17.24 0 3.01 2.22 3.01 2.36-.13 5.43-2.09t6.2-4.83q3.14-2.88 5.68-5.69 2.55-2.81 3.86-4.37 1.17-1.18 1.83-1.18.52 0 .52.52 0 1.05-1.05 2.49-1.56 1.96-4.63 5.09-3.07 3.14-6.67 6.34-3.59 3.2-6.79 5.35-3.2 2.16-4.77 2.16-7.71 0-7.71-9.02 0-5.09 4.71-13.32 1.83-3.14 3.79-6.27 1.96-3.14 3.91-6.27-16.72 8.36-30.3 24.69-1.7 2.35-3.53 5.03-1.83 2.68-3.27 4.5-1.43 1.83-2.09 1.83"></path><path fill="#867400" d="M285.3 89.52q-3.13 0-6.27-2.22-3.13-2.22-3.52-5.22-1.31-10.06 12.67-23.91 13.84-13.85 24.95-13.85 3 0 4.7 1.44.92.91 1.37 2.48.46 1.57.72 1.57.52 0 .92-.2.39-.19.91-.19 1.57 0 2.74 1.17 1.18 1.18 1.31 2.09.13.27-8.36 12.94-8.49 12.41-7.71 16.85.66 3 2.88 3 6.79 0 24.82-22.47.39-.52.78-.52.65 0 .65.92 0 1.04-1.17 2.61-16.59 22.34-25.48 22.34-1.17 0-2.22-.39-5.74-2.22-5.74-8.63 0-2.22.52-4.44l-8.1 7.84q-3.66 3.66-6.6 5.23-2.94 1.56-4.77 1.56m-1.17-2.87q7.57 0 20.64-16.59l13.85-19.07q-1.05-1.83-3.4-1.83-7.97 0-21.56 12.8-14.11 13.06-12.67 21.55.66 3.14 3.14 3.14m205.1 8.36q-20.64 0-28.09-14.11-13.46 11.24-19.2 11.24-2.75 0-4.25-2.62-1.5-2.61-1.5-5.88 0-7.83 6.01-18.28 2.61-4.58 5.75-8.36 3.13-3.79 7.05-3.79 3.79 0 5.75 6.27l3.92 12.54q2.09-2.22 4.63-5.42 2.55-3.2 5.69-7.51l11.62-15.68q21.43-27.83 28.09-30.44 2.35-.91 4.7-.91 2.62 0 4.25 1.11t1.63 2.54q0 2.36-3.79 2.75-3.91 2.22-15.28 13.19-5.23 5.1-8.43 8.43-3.2 3.33-4.37 5.03-14.63 20.38-27.04 31.35 7.96 15.81 23.9 15.81 6.01 0 12.22-2.55 6.2-2.55 11.49-6.73 5.29-4.18 8.56-9.34 3.27-5.16 3.27-10.25 0-5.36-3.79-9.67t-9.28-6.14l-1.96-.26q-1.96-.26-6.01-.79-6.14-.78-6.14-2.48 0-1.17 1.51-2.09 1.5-.91 3.07-.91 1.17 0 2.74.52 1.57.52 2.81.98l1.24.46q1.04.13 2.35.19 1.31.07 2.61.07 8.62 0 15.68-2.75 6.79-2.74 9.93-7.57 3.13-4.84 3.13-11.24 0-6.53-4.11-10.32-4.12-3.79-10.85-5.42-6.72-1.63-14.56-1.63-15.29 0-29.07 4.44-13.78 4.44-23.84 14.76-7.71 7.97-7.71 13.33 0 3.79 1.96 6.4.53.65 1.18 1.3.65.66 1.57 1.31.65.39-.79.39-8.1-1.83-8.1-10.84t9.15-16.98q7.05-6.14 16.13-9.93 9.08-3.79 19.2-5.49 10.13-1.7 20.06-1.7 7.05 0 13.58 1.05 6.54 1.04 11.76 3.46 5.23 2.42 8.3 6.34 3.07 3.92 3.07 9.66 0 8.1-4.31 12.94-4.32 4.83-11.63 7.44-8.62 3.01-18.55 3.14 5.48.26 9.6 2.87 4.11 2.62 6.4 6.8t2.29 9.14q0 6.66-3.99 12.35-3.98 5.68-10.64 9.79-6.67 4.12-14.64 6.4-7.96 2.29-15.93 2.29m-45.6-5.88q4.19 0 16.07-11.89l-.39-.52q-5.22-17.37-8.36-17.37-.13 0-.65.26-9.67 13.98-9.67 22.47 0 1.83.72 4.44.72 2.61 2.28 2.61m103.86 1.44q-4.18 0-7.58-2.68-3.39-2.68-3.39-7.12 0-9.27 11.36-21.16 11.63-12.02 20.77-12.02 3.01 0 4.9 1.63 1.9 1.64 1.9 3.99 0 7.31-11.63 14.37-10.32 6.27-17.37 6.27-1.05 0-1.83-.26-1.96 3.52-1.96 7.44 0 6.8 6.4 6.8 6.53 0 16.85-8.76 7.97-6.4 13.59-13.58 1.17-1.57 2.09-1.57.78 0 .78.78 0 .79-1.04 2.22-3.66 4.84-7.84 8.89-4.18 4.05-9.02 7.44-10.06 7.32-16.98 7.32m.78-19.6q4.97 0 12.94-4.96 2.61-1.83 5.16-4.12 2.55-2.28 4.18-4.63 1.63-2.36 1.63-4.18 0-1.7-2.74-1.7-3.92 0-10.98 5.88-3.39 2.87-6.53 6.27-3.13 3.39-5.35 7.18.78.26 1.69.26"></path><path fill="#867400" d="M583.15 89.52q-3.13 0-6.27-2.22-3.13-2.22-3.52-5.22-1.31-10.06 12.67-23.91 13.85-13.85 24.95-13.85 3.01 0 4.7 1.44.92.91 1.38 2.48.45 1.57.71 1.57.53 0 .92-.2.39-.19.91-.19 1.57 0 2.75 1.17 1.17 1.18 1.3 2.09.13.27-8.36 12.94-8.49 12.41-7.71 16.85.66 3 2.88 3 6.79 0 24.82-22.47.39-.52.78-.52.66 0 .66.92 0 1.04-1.18 2.61-16.59 22.34-25.47 22.34-1.18 0-2.22-.39-5.75-2.22-5.75-8.63 0-2.22.52-4.44l-8.1 7.84q-3.66 3.66-6.6 5.23-2.94 1.56-4.77 1.56m-1.17-2.87q7.58 0 20.64-16.59l13.85-19.07q-1.05-1.83-3.4-1.83-7.97 0-21.55 12.8-14.11 13.06-12.68 21.55.66 3.14 3.14 3.14"></path><path fill="#867400" d="M661.54 89.13q-3.53 0-4.97-2.02-1.43-2.03-1.43-5.03 0-7.58 5.22-16.2l8.36-13.59q-8.88 6.53-17.63 16.33-2.36 2.61-5.29 6.14-2.94 3.53-6.47 8.1-4.7 6.14-5.62 6.14-1.83 0-3-1.63-1.18-1.63-1.18-2.94 0-1.05.65-3.86.66-2.8 1.57-4.89.92-2.22 1.9-4.38.98-2.16 1.89-4.25l-7.84 8.23q-.26.27-1.57 1.57-1.3 1.31-2.09 1.31-.65 0-.65-.92 0-.26.2-.71.19-.46.85-1.12 1.96-1.95 4.05-4.18 2.09-2.22 4.31-5.09 1.17-1.44 3.52-4.38 2.36-2.94 5.16-6.33 2.81-3.4 5.29-6.27.66-.92 1.44-1.24.79-.33 1.05-.33 3.52 0 3.52 2.74 0 .79-.39 1.57-11.76 16.2-14.11 24.69 15.16-15.15 24.37-22.8 9.21-7.64 13.13-7.64 2.09 0 3.2.66 1.11.65 1.11 2.48 0 .65-.13 1.04-.4.92-5.36 7.32-3 3.66-5.29 6.66-2.29 3.01-3.72 5.23-2.35 3.65-3.53 6.85-1.18 3.21-1.18 5.43 0 .91.26 2.22.27 1.3 1.57 1.3 3.01 0 9.41-5.22 3-2.62 5.62-5.29 2.61-2.68 4.96-5.29.52-.53 1.7-2.03 1.17-1.5 1.44-1.5.52 0 .52 1.04 0 .53-.59 1.77t-1.24 1.89q-1.44 1.7-4.25 4.7-2.81 3.01-6.27 6.14-3.46 3.14-6.73 5.36-3.26 2.22-5.74 2.22"></path><path fill="#867400" d="M695.89 89.13q-6.14 0-9.07-4.05-2.94-4.05-4.77-11.23-2.35 2.35-3.27 2.35-.65 0-.65-1.05 0-.78.65-1.43l3.33-4.05q3.33-4.05 11.3-11.37l16.46-15.41q3.4-3.27 5.42-4.97 2.03-1.7 2.94-1.7 4.18 0 4.18 3.14 0 1.57-1.69 3.66-1.31 1.56-1.9 2.41-.59.85-.72.98-2.35 4.05-4.31 14.5-1.44 7.71-2.48 12.68-1.05 4.96-1.7 7.18 5.49-.13 10.84-3.4 5.36-3.26 11.5-10.71l.78-.78q.53-.52 1.05-.52.78 0 .78.65t-.39 1.31q-.39.65-.78 1.17-4.05 4.83-7.58 7.9-3.53 3.07-7.45 4.84-3.92 1.76-9.27 2.94l-4.18 2.74q-1.7 1.18-4.05 1.7-2.35.52-4.97.52m1.57-6.66q3.01 0 4.97-1.44 1.43-.78 2.8-4.37 1.38-3.6 2.68-8.95 1.05-4.58 1.64-8.95.58-4.38 1.11-8.43l.52-4.44q-3.01 2.22-7.58 6.4t-9.01 8.75q-4.44 4.58-5.75 6.73-1.31 2.16-1.44 3.2-.52 5.23 2.55 8.36 3.07 3.14 7.51 3.14m-475.17 71.97h-3.32l2.37-11.91.36 2.27-9.09-22.18h3.36l7.96 19.36-1.82.05 15.68-19.41h3.59l-17.86 22.23 1.14-2.32zm28.23.22q-3.41 0-5.94-1.24-2.52-1.25-3.86-3.53-1.34-2.27-1.34-5.41 0-4.09 1.73-7.27 1.72-3.18 4.72-5.02 3-1.84 6.78-1.84 3.18 0 5.5 1.2 2.31 1.21 3.61 3.48 1.29 2.27 1.29 5.45 0 .73-.09 1.48t-.22 1.43h-20.96l.41-2.41h19.05l-1.32.91q.45-2.86-.41-4.81-.86-1.96-2.66-2.98-1.79-1.02-4.29-1.02-2.91 0-5.19 1.43-2.27 1.43-3.54 3.95-1.27 2.52-1.27 5.89 0 3.59 2.06 5.52 2.07 1.93 6.21 1.93 2.41 0 4.45-.79 2.05-.8 3.37-2.21l1.45 2.32q-1.68 1.68-4.2 2.61-2.53.93-5.34.93m50.53-24.31q3.23 0 5.25 1.25 2.03 1.25 2.8 3.61.77 2.37.09 5.64l-2.73 13.59h-3.22l2.72-13.64q.73-3.54-.66-5.54-1.38-2-5.02-2-3.59 0-6.02 2-2.43 2-3.25 6l-2.64 13.18h-3.22l2.72-13.64q.73-3.54-.68-5.54-1.41-2-5-2-3.68 0-6.09 2.09-2.41 2.09-3.27 6.27l-2.54 12.82h-3.23l4.73-23.86h3.09l-1.37 6.86-.68-1.18q1.73-3.09 4.36-4.5 2.64-1.41 5.96-1.41 2.5 0 4.29.84 1.8.84 2.82 2.45 1.02 1.62 1.11 3.85l-1.68-.37q1.77-3.41 4.71-5.09 2.93-1.68 6.65-1.68m25.14 24.31q-3.41 0-5.93-1.24-2.53-1.25-3.87-3.53-1.34-2.27-1.34-5.41 0-4.09 1.73-7.27 1.73-3.18 4.73-5.02 3-1.84 6.77-1.84 3.18 0 5.5 1.2 2.32 1.21 3.61 3.48 1.3 2.27 1.3 5.45 0 .73-.1 1.48-.09.75-.22 1.43h-20.95l.4-2.41h19.05l-1.32.91q.45-2.86-.41-4.81-.86-1.96-2.66-2.98-1.79-1.02-4.29-1.02-2.91 0-5.18 1.43-2.28 1.43-3.55 3.95-1.27 2.52-1.27 5.89 0 3.59 2.07 5.52 2.06 1.93 6.2 1.93 2.41 0 4.45-.79 2.05-.8 3.37-2.21l1.45 2.32q-1.68 1.68-4.2 2.61-2.52.93-5.34.93m32.95-24.31q3.22 0 5.29 1.25t2.87 3.61q.79 2.37.11 5.64l-2.73 13.59h-3.22l2.72-13.64q.73-3.54-.75-5.54-1.47-2-5.2-2-3.82 0-6.34 2.09t-3.39 6.27l-2.54 12.82h-3.23l4.73-23.86h3.09l-1.37 6.86-.68-1.18q1.73-3.09 4.48-4.5 2.75-1.41 6.16-1.41m37.04 24.31q-3.41 0-5.89-1.24-2.47-1.25-3.82-3.53-1.34-2.27-1.34-5.36 0-4.09 1.78-7.29 1.77-3.21 4.93-5.05 3.16-1.84 7.2-1.84 3.32 0 5.71 1.2 2.38 1.21 3.7 3.57l-2.73 1.59q-1-1.82-2.75-2.68-1.75-.86-4.2-.86-3 0-5.36 1.45-2.37 1.46-3.71 3.98-1.34 2.52-1.34 5.79 0 3.5 2.07 5.46 2.07 1.95 5.88 1.95 2.32 0 4.3-.88 1.98-.89 3.25-2.57l2.32 1.77q-1.55 2.14-4.23 3.34-2.68 1.2-5.77 1.2m25.4 0q-3.31 0-5.75-1.24-2.43-1.25-3.77-3.53-1.34-2.27-1.34-5.36 0-4.09 1.77-7.29 1.78-3.21 4.91-5.05 3.14-1.84 7.14-1.84 3.32 0 5.75 1.23 2.43 1.22 3.77 3.5 1.34 2.27 1.34 5.36 0 4.09-1.77 7.29-1.77 3.21-4.89 5.07-3.11 1.86-7.16 1.86m.23-2.86q3 0 5.34-1.43t3.68-3.98q1.34-2.54 1.34-5.77 0-3.54-2.06-5.5-2.07-1.95-5.8-1.95-2.95 0-5.32 1.45-2.36 1.46-3.7 3.98-1.34 2.52-1.34 5.79 0 3.5 2.07 5.46 2.06 1.95 5.79 1.95m21.41 2.64h-3.23l5.36-26.91q.69-3.36 2.75-5.2 2.07-1.84 5.43-1.84 1.46 0 2.73.41t2.09 1.13l-1.45 2.37q-1.28-1.19-3.37-1.19t-3.34 1.12q-1.25 1.11-1.75 3.57l-.72 3.5-.19 1.4zm11.45-21.18h-14.73l.5-2.68h14.78zm3.95 21.18h-3.22l5.36-26.91q.68-3.36 2.75-5.2 2.07-1.84 5.43-1.84 1.46 0 2.73.41t2.09 1.13l-1.46 2.37q-1.27-1.19-3.36-1.19t-3.34 1.12q-1.25 1.11-1.75 3.57l-.73 3.5-.18 1.4zm11.46-21.18h-14.73l.5-2.68h14.77zm11.09 21.4q-3.41 0-5.93-1.24-2.53-1.25-3.87-3.53-1.34-2.27-1.34-5.41 0-4.09 1.73-7.27 1.73-3.18 4.73-5.02 3-1.84 6.77-1.84 3.18 0 5.5 1.2 2.31 1.21 3.61 3.48 1.3 2.27 1.3 5.45 0 .73-.1 1.48-.09.75-.22 1.43H472.4l.4-2.41h19.05l-1.32.91q.45-2.86-.41-4.81-.86-1.96-2.66-2.98-1.79-1.02-4.29-1.02-2.91 0-5.18 1.43-2.28 1.43-3.55 3.95-1.27 2.52-1.27 5.89 0 3.59 2.07 5.52 2.06 1.93 6.2 1.93 2.41 0 4.45-.79 2.05-.8 3.37-2.21l1.45 2.32q-1.68 1.68-4.2 2.61-2.53.93-5.34.93m27.45 0q-3.41 0-5.93-1.24-2.53-1.25-3.87-3.53-1.34-2.27-1.34-5.41 0-4.09 1.73-7.27 1.73-3.18 4.73-5.02 3-1.84 6.77-1.84 3.18 0 5.5 1.2 2.32 1.21 3.61 3.48 1.3 2.27 1.3 5.45 0 .73-.09 1.48-.1.75-.23 1.43h-20.95l.41-2.41h19.04l-1.32.91q.45-2.86-.41-4.81-.86-1.96-2.66-2.98-1.79-1.02-4.29-1.02-2.91 0-5.18 1.43-2.28 1.43-3.55 3.95-1.27 2.52-1.27 5.89 0 3.59 2.07 5.52 2.06 1.93 6.2 1.93 2.41 0 4.45-.79 2.05-.8 3.37-2.21l1.45 2.32q-1.68 1.68-4.2 2.61-2.52.93-5.34.93m-85.632-92.774a1.198 1.198 0 0 0-.812-1.254 1.872 1.872 0 0 0-1.247.102q-1.19.421-4.738-.8-.996-.351-1.9-.694a36.696 36.696 0 0 0-2.076-.73q-.7-.226-1.438-.496c-2.11-.774-4.439-1.6-6.801-.56-3.106 1.362-7.371 7.561-9.257 10.484l-.516-.78q-.01-.083-.043-.173c-2.735-10.874 5.082-31.46 5.163-31.67l.01-.029q.048-.142.055-.298l-.002-.04-.026-.27-.011-.06q-.032-.137-.111-.276l-.04-.045-.173-.21-.024-.024-.014-.005-.016-.021-.25-.15-.05-.017q-.141-.048-.29-.076l-.007-.002a1.498 1.498 0 0 0-.368.031q-.154.034-.285.116l-.007-.002c-7.944 4.575-12.487 19.129-13.63 23.25a17.974 17.974 0 0 0-6.23.105c-4.044.682-7.668.488-10.762-.578-2.691-.926-3.979-2.201-3.99-2.213a1.123 1.123 0 0 0-1.707.125 5.317 5.317 0 0 0-.709 4.888c1.001 3.165 4.542 6.27 8.82 7.742 2.223.765 5.64 1.443 9.29.3 6.124-1.915 10.105-1.146 11.932-.517.51.175.814.328.915.378 3.357 4.72 6.63 10.853 5.548 15.677-.581 2.54-2.334 4.455-5.346 5.818-.597-5.924-8.209-12.688-19.085-16.433l-.41-.141c-12.97-4.339-24.85-2.592-27.049 3.977-2.16 6.456 6.096 14.938 18.792 19.31l.41.141c12.97 4.34 24.85 2.592 27.049-3.977l.103-.368c4.322-1.649 6.922-4.278 7.727-7.834.53-2.321.22-4.851-.581-7.377 1.533-.264 3.368-1.248 4.63-2.865 1.379-1.75 8.42-6.05 11.676-6.513 2.26-.331 6.266-2.532 7.497-4.152q.291-.271.35-.671zm-56.612 23.428q-2.07-.269-3.726-.84-1.26-.433-2.179-.987 2.887.907 6.807.633 3.18-.22 5.881.702a12.929 12.929 0 0 1 4.204 2.422c-1.926-.64-4.565-1.097-10.98-1.927"></path></svg></svg>